<?xml version="1.0" encoding="iso-8859-1"?>
<!-- Generator: Adobe Illustrator 21.0.0, SVG Export Plug-In . SVG Version: 6.00 Build 0)  -->
<svg xmlns="http://www.w3.org/2000/svg" xmlns:xlink="http://www.w3.org/1999/xlink" version="1.1" id="Capa_1" x="0px" y="0px" viewBox="0 0 511.196 511.196" style="enable-background:new 0 0 511.196 511.196;" xml:space="preserve" width="512" height="512">
<g>
	<path style="fill:#E93234;" d="M449.721,77.392c-39.052-41.279-89.816-60.118-125.524-68.653   c-37.094-8.865-65.44-8.773-68.599-8.733c-3.156-0.037-31.503-0.133-68.599,8.733C122.304,24.202,83.03,54.607,61.475,77.392   C15.579,125.905-4.421,193.936,2.027,279.597c5.632,74.82,27.736,137.315,65.698,185.746c8.502,10.847,19.827,18.995,32.751,23.563   c2.724,0.963,5.761,0.276,7.804-1.77c2.043-2.044,2.729-5.081,1.766-7.805L70.064,366.407c-0.017-0.046-0.033-0.092-0.051-0.138   c-10.122-26.902-16.503-57.128-18.965-89.84c-5.241-69.634,10.685-124.614,47.336-163.413   c31.161-32.987,72.033-48.181,100.834-55.119c31.561-7.602,55.993-7.25,56.232-7.247c0.098,0.002,0.197,0.002,0.295,0   c0.979-0.017,96.97-1.158,156.984,62.278c36.71,38.804,52.664,93.813,47.418,163.5c-2.462,32.711-8.843,62.938-18.965,89.84   c-0.018,0.046-0.034,0.092-0.051,0.138l-39.981,112.924c-0.964,2.725-0.277,5.761,1.766,7.805c1.431,1.432,3.349,2.198,5.306,2.198   c0.838,0,1.682-0.14,2.498-0.429c12.924-4.568,24.249-12.716,32.75-23.563c37.963-48.432,60.067-110.926,65.699-185.746   C515.618,193.936,495.617,125.905,449.721,77.392z"/>
	<path style="fill:#D6252E;" d="M317.029,33.389c-33.218-7.939-58.603-7.856-61.431-7.82c-2.826-0.033-28.211-0.119-61.431,7.82   c-57.936,13.847-93.107,41.076-112.409,61.48c-41.1,43.444-59.012,104.368-53.237,181.079   c5.044,67.003,24.838,122.968,58.834,166.338c4.102,5.234,8.944,9.758,14.343,13.465l-31.633-89.345   c-0.017-0.046-0.033-0.092-0.051-0.138c-10.122-26.902-16.503-57.128-18.965-89.84c-5.241-69.634,10.685-124.614,47.336-163.413   c31.161-32.987,72.033-48.181,100.834-55.119c31.561-7.602,55.993-7.25,56.232-7.247c0.098,0.002,0.197,0.002,0.295,0   c0.979-0.017,96.97-1.158,156.984,62.278c36.71,38.804,52.664,93.813,47.418,163.5c-2.462,32.711-8.843,62.938-18.965,89.84   c-0.018,0.046-0.034,0.092-0.051,0.138l-31.633,89.345c5.399-3.707,10.24-8.231,14.342-13.465   c33.996-43.371,53.791-99.336,58.835-166.339c5.775-76.711-12.137-137.635-53.237-181.079   C394.467,57.903,349.006,41.032,317.029,33.389z"/>
	<path style="fill:#2A2A2C;" d="M417.917,319.178l-19.467-7.057c-9.099-3.299-18.934-2.838-27.692,1.3   c-8.848,4.181-15.531,11.597-18.819,20.882v-0.001l-43.377,122.511c-6.734,19.021,3.109,40.05,21.943,46.877l19.466,7.056   c0.827,0.3,1.692,0.449,2.556,0.449l67.876-190.519C419.7,320.038,418.865,319.521,417.917,319.178z"/>
	<path style="fill:#78777E;" d="M417.917,319.178l-19.467-7.057c-9.099-3.299-18.934-2.838-27.692,1.3   c-8.848,4.181-15.531,11.597-18.819,20.882v-0.001l-43.377,122.511c-6.734,19.021,3.109,40.05,21.943,46.877l19.466,7.056   c0.827,0.3,1.692,0.449,2.556,0.449l67.876-190.519C419.7,320.038,418.865,319.521,417.917,319.178z"/>
	<path style="fill:#FF7E91;" d="M456.691,353.622l-36.288-32.946l-67.876,190.52c0.109,0,0.219-0.003,0.328-0.007l26.985-1.183   c16.267-0.713,30.319-11.175,35.8-26.654l43.08-121.673C459.728,358.829,458.929,355.654,456.691,353.622z"/>
	<path style="fill:#67676B;" d="M365.625,467.129l-19.466-7.056c-14.998-5.437-25.628-20.621-25.939-36.185l-11.658,32.926   c-6.734,19.021,3.109,40.05,21.943,46.877l19.466,7.056c0.827,0.3,1.692,0.449,2.556,0.449l15.543-43.628   C367.243,467.556,366.417,467.416,365.625,467.129z"/>
	<path style="fill:#FF5468;" d="M395.494,466.388l-27.423,1.178l-15.544,43.63c0.109,0,0.219-0.003,0.328-0.007l26.985-1.183   c16.267-0.713,30.319-11.175,35.8-26.654l10.992-31.046C418.645,460.662,406.824,465.891,395.494,466.388z"/>
	<path style="fill:#2A2A2C;" d="M93.574,319.178l19.467-7.057c9.099-3.299,18.935-2.838,27.692,1.3   c8.848,4.181,15.531,11.597,18.819,20.882v-0.001l43.377,122.511c6.734,19.021-3.109,40.05-21.943,46.877l-19.466,7.056   c-0.827,0.3-1.692,0.449-2.556,0.449L91.089,320.677C91.791,320.038,92.626,319.521,93.574,319.178z"/>
	<path style="fill:#78777E;" d="M93.574,319.178l19.467-7.057c9.099-3.299,18.935-2.838,27.692,1.3   c8.848,4.181,15.531,11.597,18.819,20.882v-0.001l43.377,122.511c6.734,19.021-3.109,40.05-21.943,46.877l-19.466,7.056   c-0.827,0.3-1.692,0.449-2.556,0.449L91.089,320.677C91.791,320.038,92.626,319.521,93.574,319.178z"/>
	<path style="fill:#FF7E91;" d="M54.8,353.622l36.288-32.946l67.876,190.52c-0.109,0-0.219-0.003-0.328-0.007l-26.985-1.183   c-16.267-0.713-30.319-11.175-35.8-26.654l-43.08-121.673C51.763,358.829,52.562,355.654,54.8,353.622z"/>
	<path style="fill:#67676B;" d="M145.866,467.129l19.466-7.056c14.998-5.437,25.628-20.621,25.939-36.185l11.658,32.926   c6.734,19.021-3.109,40.05-21.943,46.877l-19.466,7.056c-0.827,0.3-1.692,0.449-2.556,0.449l-15.543-43.628   C144.248,467.556,145.074,467.416,145.866,467.129z"/>
	<path style="fill:#FF5468;" d="M115.997,466.388l27.424,1.178l15.544,43.63c-0.109,0-0.219-0.003-0.328-0.007l-26.985-1.183   c-16.267-0.713-30.319-11.175-35.8-26.654l-10.992-31.046C92.846,460.662,104.667,465.891,115.997,466.388z"/>
</g>















</svg>
