<svg width="91" height="31" viewBox="0 0 91 31" fill="none" xmlns="http://www.w3.org/2000/svg">
<g clip-path="url(#clip0)">
<path d="M0 29.8266L4.24938 14.1241H1.65928L3.31857 7.93219H5.8682L5.98962 7.48699C6.66413 4.84293 7.75682 2.94084 9.26771 1.7807C10.8056 0.593569 12.8426 0 15.3787 0C17.1864 0 18.8187 0.242826 20.2756 0.72847L18.8592 6.11101C17.9419 5.78724 17.0785 5.62536 16.2691 5.62536C14.7852 5.62536 13.8678 6.31335 13.5171 7.68933L13.3957 8.05357H18.3331L16.7142 14.1241H11.9387L7.68936 29.8266H0ZM15.7025 29.8266L23.6347 0.283276H31.324L23.3918 29.8266H15.7025Z" fill="white"/>
<path d="M40.4367 30C37.2597 30 34.726 29.0801 32.8356 27.2403C30.9452 25.4005 30 23.0554 30 20.205C30 16.9659 31.2078 14.1284 33.6233 11.6926C36.0651 9.23089 39.032 8 42.524 8C45.7272 8 48.274 8.91992 50.1644 10.7597C52.0548 12.5995 53 14.9317 53 17.7562C53 21.0212 51.7791 23.8846 49.3373 26.3463C46.9218 28.7821 43.9549 30 40.4367 30ZM40.8699 23.8587C42.2877 23.8587 43.4692 23.2627 44.4144 22.0707C45.3596 20.8528 45.8322 19.5053 45.8322 18.0283C45.8322 16.8622 45.4909 15.9293 44.8082 15.2297C44.1256 14.5041 43.2329 14.1414 42.1301 14.1414C40.7123 14.1414 39.5308 14.7503 38.5856 15.9682C37.6404 17.1602 37.1678 18.4817 37.1678 19.9329C37.1678 21.1249 37.5091 22.0836 38.1918 22.8092C38.8744 23.5088 39.7671 23.8587 40.8699 23.8587Z" fill="white"/>
<path d="M57.0758 29.9884L56.3068 7.93216H63.7129L63.6319 18.9401L69.9858 7.8512H76.2992L76.7443 19.021L82.653 7.93216H90.14L77.4728 29.9884H70.9166L70.3905 18.6163L63.7129 29.9884H57.0758Z" fill="white"/>
</g>
<defs>
<clipPath id="clip0">
<rect width="90.14" height="30.3527" fill="white"/>
</clipPath>
</defs>
</svg>
